<svg id="SvgjsSvg1386" width="1497.2999877929688" height="1438.0124969482422" xmlns="http://www.w3.org/2000/svg" version="1.1" xmlns:xlink="http://www.w3.org/1999/xlink" xmlns:svgjs="http://svgjs.com/svgjs"><defs id="SvgjsDefs1387"><marker id="SvgjsMarker1410" markerWidth="14" markerHeight="10" refX="10" refY="5" viewBox="0 0 14 10" orient="auto" markerUnits="userSpaceOnUse" stroke-dasharray="0,0"><path id="SvgjsPath1411" d="M0,0 L14,5 L0,10 L0,0" fill="#323232" stroke="#323232" stroke-width="1"></path></marker><marker id="SvgjsMarker1420" markerWidth="14" markerHeight="10" refX="10" refY="5" viewBox="0 0 14 10" orient="auto" markerUnits="userSpaceOnUse" stroke-dasharray="0,0"><path id="SvgjsPath1421" d="M0,0 L14,5 L0,10 L0,0" fill="#323232" stroke="#323232" stroke-width="1"></path></marker><marker id="SvgjsMarker1438" markerWidth="14" markerHeight="10" refX="10" refY="5" viewBox="0 0 14 10" orient="auto" markerUnits="userSpaceOnUse" stroke-dasharray="0,0"><path id="SvgjsPath1439" d="M0,0 L14,5 L0,10 L0,0" fill="#323232" stroke="#323232" stroke-width="1"></path></marker><marker id="SvgjsMarker1442" markerWidth="14" markerHeight="10" refX="10" refY="5" viewBox="0 0 14 10" orient="auto" markerUnits="userSpaceOnUse" stroke-dasharray="0,0"><path id="SvgjsPath1443" d="M0,0 L14,5 L0,10 L0,0" fill="#323232" stroke="#323232" stroke-width="1"></path></marker><marker id="SvgjsMarker1446" markerWidth="14" markerHeight="10" refX="10" refY="5" viewBox="0 0 14 10" orient="auto" markerUnits="userSpaceOnUse" stroke-dasharray="0,0"><path id="SvgjsPath1447" d="M0,0 L14,5 L0,10 L0,0" fill="#323232" stroke="#323232" stroke-width="1"></path></marker><marker id="SvgjsMarker1456" markerWidth="14" markerHeight="10" refX="10" refY="5" viewBox="0 0 14 10" orient="auto" markerUnits="userSpaceOnUse" stroke-dasharray="0,0"><path id="SvgjsPath1457" d="M0,0 L14,5 L0,10 L0,0" fill="#323232" stroke="#323232" stroke-width="1"></path></marker><marker id="SvgjsMarker1488" markerWidth="14" markerHeight="10" refX="10" refY="5" viewBox="0 0 14 10" orient="auto" markerUnits="userSpaceOnUse" stroke-dasharray="0,0"><path id="SvgjsPath1489" d="M0,0 L14,5 L0,10 L0,0" fill="#323232" stroke="#323232" stroke-width="1"></path></marker><marker id="SvgjsMarker1492" markerWidth="14" markerHeight="10" refX="10" refY="5" viewBox="0 0 14 10" orient="auto" markerUnits="userSpaceOnUse" stroke-dasharray="0,0"><path id="SvgjsPath1493" d="M0,0 L14,5 L0,10 L0,0" fill="#323232" stroke="#323232" stroke-width="1"></path></marker><marker id="SvgjsMarker1496" markerWidth="14" markerHeight="10" refX="10" refY="5" viewBox="0 0 14 10" orient="auto" markerUnits="userSpaceOnUse" stroke-dasharray="0,0"><path id="SvgjsPath1497" d="M0,0 L14,5 L0,10 L0,0" fill="#323232" stroke="#323232" stroke-width="1"></path></marker><marker id="SvgjsMarker1500" markerWidth="14" markerHeight="10" refX="10" refY="5" viewBox="0 0 14 10" orient="auto" markerUnits="userSpaceOnUse" stroke-dasharray="0,0"><path id="SvgjsPath1501" d="M0,0 L14,5 L0,10 L0,0" fill="#323232" stroke="#323232" stroke-width="1"></path></marker><marker id="SvgjsMarker1504" markerWidth="14" markerHeight="10" refX="10" refY="5" viewBox="0 0 14 10" orient="auto" markerUnits="userSpaceOnUse" stroke-dasharray="0,0"><path id="SvgjsPath1505" d="M0,0 L14,5 L0,10 L0,0" fill="#323232" stroke="#323232" stroke-width="1"></path></marker><marker id="SvgjsMarker1532" markerWidth="14" markerHeight="10" refX="10" refY="5" viewBox="0 0 14 10" orient="auto" markerUnits="userSpaceOnUse" stroke-dasharray="0,0"><path id="SvgjsPath1533" d="M0,0 L14,5 L0,10 L0,0" fill="#323232" stroke="#323232" stroke-width="1"></path></marker><marker id="SvgjsMarker1558" markerWidth="14" markerHeight="10" refX="10" refY="5" viewBox="0 0 14 10" orient="auto" markerUnits="userSpaceOnUse" stroke-dasharray="0,0"><path id="SvgjsPath1559" d="M0,0 L14,5 L0,10 L0,0" fill="#323232" stroke="#323232" stroke-width="1"></path></marker><marker id="SvgjsMarker1574" markerWidth="14" markerHeight="10" refX="10" refY="5" viewBox="0 0 14 10" orient="auto" markerUnits="userSpaceOnUse" stroke-dasharray="0,0"><path id="SvgjsPath1575" d="M0,0 L14,5 L0,10 L0,0" fill="#323232" stroke="#323232" stroke-width="1"></path></marker><marker id="SvgjsMarker1588" markerWidth="14" markerHeight="10" refX="10" refY="5" viewBox="0 0 14 10" orient="auto" markerUnits="userSpaceOnUse" stroke-dasharray="0,0"><path id="SvgjsPath1589" d="M0,0 L14,5 L0,10 L0,0" fill="#323232" stroke="#323232" stroke-width="1"></path></marker><marker id="SvgjsMarker1600" markerWidth="14" markerHeight="10" refX="10" refY="5" viewBox="0 0 14 10" orient="auto" markerUnits="userSpaceOnUse" stroke-dasharray="0,0"><path id="SvgjsPath1601" d="M0,0 L14,5 L0,10 L0,0" fill="#323232" stroke="#323232" stroke-width="1"></path></marker><marker id="SvgjsMarker1634" markerWidth="14" markerHeight="10" refX="10" refY="5" viewBox="0 0 14 10" orient="auto" markerUnits="userSpaceOnUse" stroke-dasharray="0,0"><path id="SvgjsPath1635" d="M0,0 L14,5 L0,10 L0,0" fill="#323232" stroke="#323232" stroke-width="1"></path></marker><marker id="SvgjsMarker1638" markerWidth="14" markerHeight="10" refX="10" refY="5" viewBox="0 0 14 10" orient="auto" markerUnits="userSpaceOnUse" stroke-dasharray="0,0"><path id="SvgjsPath1639" d="M0,0 L14,5 L0,10 L0,0" fill="#323232" stroke="#323232" stroke-width="1"></path></marker><marker id="SvgjsMarker1642" markerWidth="14" markerHeight="10" refX="10" refY="5" viewBox="0 0 14 10" orient="auto" markerUnits="userSpaceOnUse" stroke-dasharray="0,0"><path id="SvgjsPath1643" d="M0,0 L14,5 L0,10 L0,0" fill="#323232" stroke="#323232" stroke-width="1"></path></marker><marker id="SvgjsMarker1654" markerWidth="14" markerHeight="10" refX="10" refY="5" viewBox="0 0 14 10" orient="auto" markerUnits="userSpaceOnUse" stroke-dasharray="0,0"><path id="SvgjsPath1655" d="M0,0 L14,5 L0,10 L0,0" fill="#323232" stroke="#323232" stroke-width="1"></path></marker><marker id="SvgjsMarker1666" markerWidth="14" markerHeight="10" refX="10" refY="5" viewBox="0 0 14 10" orient="auto" markerUnits="userSpaceOnUse" stroke-dasharray="0,0"><path id="SvgjsPath1667" d="M0,0 L14,5 L0,10 L0,0" fill="#323232" stroke="#323232" stroke-width="1"></path></marker><marker id="SvgjsMarker1700" markerWidth="14" markerHeight="10" refX="10" refY="5" viewBox="0 0 14 10" orient="auto" markerUnits="userSpaceOnUse" stroke-dasharray="0,0"><path id="SvgjsPath1701" d="M0,0 L14,5 L0,10 L0,0" fill="#323232" stroke="#323232" stroke-width="1"></path></marker><marker id="SvgjsMarker1710" markerWidth="14" markerHeight="10" refX="10" refY="5" viewBox="0 0 14 10" orient="auto" markerUnits="userSpaceOnUse" stroke-dasharray="0,0"><path id="SvgjsPath1711" d="M0,0 L14,5 L0,10 L0,0" fill="#323232" stroke="#323232" stroke-width="1"></path></marker><marker id="SvgjsMarker1720" markerWidth="14" markerHeight="10" refX="10" refY="5" viewBox="0 0 14 10" orient="auto" markerUnits="userSpaceOnUse" stroke-dasharray="0,0"><path id="SvgjsPath1721" d="M0,0 L14,5 L0,10 L0,0" fill="#323232" stroke="#323232" stroke-width="1"></path></marker></defs><g id="SvgjsG1388" transform="translate(24.99999237060547,935.5125122070312)"><path id="SvgjsPath1389" d="M 0 0L 627 0L 627 459.5000305175781L 0 459.5000305175781Z" stroke="rgba(50,50,50,1)" stroke-width="2" fill-opacity="1" fill="#ffffff"></path><g id="SvgjsG1390"><text id="SvgjsText1391" font-family="微软雅黑" text-anchor="middle" font-size="13px" width="607px" fill="#323232" font-weight="400" align="middle" lineHeight="125%" anchor="middle" family="微软雅黑" size="13px" weight="400" font-style="" opacity="1" y="219.12501525878906" transform="rotate(0)"></text></g></g><g id="SvgjsG1392" transform="translate(279.49999237060547,1034.0125427246094)"><path id="SvgjsPath1393" d="M 0 0L 360 0L 360 324L 0 324Z" stroke="rgba(50,50,50,1)" stroke-width="2" fill-opacity="1" fill="#ffffff"></path><g id="SvgjsG1394"><text id="SvgjsText1395" font-family="微软雅黑" text-anchor="middle" font-size="13px" width="340px" fill="#323232" font-weight="400" align="middle" lineHeight="125%" anchor="middle" family="微软雅黑" size="13px" weight="400" font-style="" opacity="1" y="151.375" transform="rotate(0)"></text></g></g><g id="SvgjsG1396" transform="translate(148.29998779296875,204.01250457763672)"><path id="SvgjsPath1397" d="M 0 4Q 0 0 4 0L 96 0Q 100 0 100 4L 100 66Q 100 70 96 70L 4 70Q 0 70 0 66Z" stroke="rgba(50,50,50,1)" stroke-width="2" fill-opacity="1" fill="#00ffff"></path><g id="SvgjsG1398"><text id="SvgjsText1399" font-family="微软雅黑" text-anchor="middle" font-size="13px" width="80px" fill="#323232" font-weight="400" align="middle" lineHeight="125%" anchor="middle" family="微软雅黑" size="13px" weight="400" font-style="" opacity="1" y="24.375" transform="rotate(0)"><tspan id="SvgjsTspan1400" dy="16" x="50"><tspan id="SvgjsTspan1401" style="text-decoration:;">倒排索引</tspan></tspan></text></g></g><g id="SvgjsG1402" transform="translate(304.29998779296875,119.01250457763672)"><path id="SvgjsPath1403" d="M 0 0L 159 0L 159 46L 0 46Z" stroke="rgba(50,50,50,1)" stroke-width="2" fill-opacity="1" fill="#ffffff"></path><g id="SvgjsG1404"><text id="SvgjsText1405" font-family="微软雅黑" text-anchor="middle" font-size="13px" width="139px" fill="#323232" font-weight="400" align="middle" lineHeight="125%" anchor="middle" family="微软雅黑" size="13px" weight="400" font-style="" opacity="1" y="12.375" transform="rotate(0)"><tspan id="SvgjsTspan1406" dy="16" x="79.5"><tspan id="SvgjsTspan1407" style="text-decoration:;">倒排表：post list</tspan></tspan></text></g></g><g id="SvgjsG1408"><path id="SvgjsPath1409" d="M464.29998779296875 142.01250457763672L513.7999877929688 142.01250457763672L513.7999877929688 142.01250457763672L560.6999877929687 142.01250457763672" stroke="#323232" stroke-width="2" fill="none" marker-end="url(#SvgjsMarker1410)"></path></g><g id="SvgjsG1412" transform="translate(564.2999877929688,120.51250457763672)"><path id="SvgjsPath1413" d="M 0 0L 334 0L 334 43L 0 43Z" stroke="rgba(50,50,50,1)" stroke-width="2" fill-opacity="1" fill="#ffffff"></path><g id="SvgjsG1414"><text id="SvgjsText1415" font-family="微软雅黑" text-anchor="middle" font-size="13px" width="314px" fill="#323232" font-weight="400" align="middle" lineHeight="125%" anchor="middle" family="微软雅黑" size="13px" weight="400" font-style="" opacity="1" y="10.875" transform="rotate(0)"><tspan id="SvgjsTspan1416" dy="16" x="167"><tspan id="SvgjsTspan1417" style="text-decoration:;">int数组，存储了匹配某个term的所有ID</tspan></tspan></text></g></g><g id="SvgjsG1418"><path id="SvgjsPath1419" d="M249.26494891883226 229.75011169363987C 290.0228831862657 230.0125045776367 262.5770923996718 142.01250457763672 300.82612773986 142.95711896002535" stroke="#323232" stroke-width="2" fill="none" marker-end="url(#SvgjsMarker1420)"></path></g><g id="SvgjsG1422" transform="translate(304.29998779296875,233.01250457763672)"><path id="SvgjsPath1423" d="M 0 0L 159 0L 159 46L 0 46Z" stroke="rgba(50,50,50,1)" stroke-width="2" fill-opacity="1" fill="#ffffff"></path><g id="SvgjsG1424"><text id="SvgjsText1425" font-family="微软雅黑" text-anchor="middle" font-size="13px" width="139px" fill="#323232" font-weight="400" align="middle" lineHeight="125%" anchor="middle" family="微软雅黑" size="13px" weight="400" font-style="" opacity="1" y="3.875" transform="rotate(0)"><tspan id="SvgjsTspan1426" dy="16" x="79.5"><tspan id="SvgjsTspan1427" style="text-decoration:;">词项字典：term </tspan></tspan><tspan id="SvgjsTspan1428" dy="16" x="79.5"><tspan id="SvgjsTspan1429" style="text-decoration:;">dictionary</tspan></tspan></text></g></g><g id="SvgjsG1430" transform="translate(304.29998779296875,347.0125045776367)"><path id="SvgjsPath1431" d="M 0 0L 159 0L 159 46L 0 46Z" stroke="rgba(50,50,50,1)" stroke-width="2" fill-opacity="1" fill="#ffffff"></path><g id="SvgjsG1432"><text id="SvgjsText1433" font-family="微软雅黑" text-anchor="middle" font-size="13px" width="139px" fill="#323232" font-weight="400" align="middle" lineHeight="125%" anchor="middle" family="微软雅黑" size="13px" weight="400" font-style="" opacity="1" y="12.375" transform="rotate(0)"><tspan id="SvgjsTspan1434" dy="16" x="79.5"><tspan id="SvgjsTspan1435" style="text-decoration:;">词项索引：term index</tspan></tspan></text></g></g><g id="SvgjsG1436"><path id="SvgjsPath1437" d="M249.28977153574857 239.1550813728341C 271.709387614408 239.01250457763672 280.8905879715295 256.0125045776367 300.7367663189614 255.4992281149261" stroke="#323232" stroke-width="2" fill="none" marker-end="url(#SvgjsMarker1438)"></path></g><g id="SvgjsG1440"><path id="SvgjsPath1441" d="M248.27311998333363 256.24275170590477C 298.282337679964 256.0125045776367 253.31763790597353 370.0125045776367 300.79671190765526 369.1836149158718" stroke="#323232" stroke-width="2" fill="none" marker-end="url(#SvgjsMarker1442)"></path></g><g id="SvgjsG1444"><path id="SvgjsPath1445" d="M899.299557892365 142.04182379306064C 967.6123243572486 142.01250457763672 1067.7999877929688 175.32484114191652 1067.4141724417086 109.59177077543929" stroke="#323232" stroke-width="2" fill="none" marker-end="url(#SvgjsMarker1446)"></path></g><g id="SvgjsG1448" transform="translate(982.2999877929688,57.01250457763672)"><path id="SvgjsPath1449" d="M 0 0L 171 0L 171 49L 0 49Z" stroke="rgba(50,50,50,1)" stroke-width="2" fill-opacity="1" fill="#00ffff"></path><g id="SvgjsG1450"><text id="SvgjsText1451" font-family="微软雅黑" text-anchor="middle" font-size="13px" width="151px" fill="#323232" font-weight="400" align="middle" lineHeight="125%" anchor="middle" family="微软雅黑" size="13px" weight="400" font-style="" opacity="1" y="13.875" transform="rotate(0)"><tspan id="SvgjsTspan1452" dy="16" x="85.5"><tspan id="SvgjsTspan1453" style="text-decoration:;">Roaring BitMap</tspan></tspan></text></g></g><g id="SvgjsG1454"><path id="SvgjsPath1455" d="M899.2906549264903 142.14880802792388C 938.3743574573814 142.01250457763672 947.355618128556 187.76250457763672 983.8635861122909 187.271812156603" stroke="#323232" stroke-width="2" fill="none" marker-end="url(#SvgjsMarker1456)"></path></g><g id="SvgjsG1458" transform="translate(982.2999877929688,163.51250457763672)"><path id="SvgjsPath1459" d="M 0 0L 171 0L 171 48.5L 0 48.5Z" stroke="rgba(50,50,50,1)" stroke-width="2" fill-opacity="1" fill="#00ffff"></path><g id="SvgjsG1460"><text id="SvgjsText1461" font-family="微软雅黑" text-anchor="middle" font-size="13px" width="151px" fill="#323232" font-weight="400" align="middle" lineHeight="125%" anchor="middle" family="微软雅黑" size="13px" weight="400" font-style="" opacity="1" y="13.625" transform="rotate(0)"><tspan id="SvgjsTspan1462" dy="16" x="85.5"><tspan id="SvgjsTspan1463" style="text-decoration:;">Frame Of Referrence</tspan></tspan></text></g></g><g id="SvgjsG1464" transform="translate(564.2999877929688,246.26250457763672)"><path id="SvgjsPath1465" d="M 0 0L 334 0L 334 82L 0 82Z" stroke="rgba(50,50,50,1)" stroke-width="2" fill-opacity="1" fill="#ffffff"></path><g id="SvgjsG1466"><text id="SvgjsText1467" font-family="微软雅黑" text-anchor="start" font-size="13px" width="314px" fill="#323232" font-weight="400" align="top" lineHeight="125%" anchor="start" family="微软雅黑" size="13px" weight="400" font-style="" opacity="1" y="-2.625" transform="rotate(0)"><tspan id="SvgjsTspan1468" dy="16" x="10"><tspan id="SvgjsTspan1469" style="text-decoration:;">tip：词典索引，存放前缀后缀指针，需要内存加载</tspan></tspan><tspan id="SvgjsTspan1470" dy="16" x="10"><tspan id="SvgjsTspan1471" style="text-decoration:;"> </tspan></tspan><tspan id="SvgjsTspan1472" dy="16" x="10"><tspan id="SvgjsTspan1473" style="text-decoration:;">trim：后缀词块，倒排表指针</tspan></tspan><tspan id="SvgjsTspan1474" dy="16" x="10"><tspan id="SvgjsTspan1475" style="text-decoration:;"> </tspan></tspan><tspan id="SvgjsTspan1476" dy="16" x="10"><tspan id="SvgjsTspan1477" style="text-decoration:;">doc：倒排表，词频</tspan></tspan></text></g></g><g id="SvgjsG1478" transform="translate(564.2999877929688,411.0125045776367)"><path id="SvgjsPath1479" d="M 0 0L 323 0L 323 42.00000190734863L 0 42.00000190734863Z" stroke="rgba(50,50,50,1)" stroke-width="2" fill-opacity="1" fill="#ffffff"></path><g id="SvgjsG1480"><text id="SvgjsText1481" font-family="微软雅黑" text-anchor="start" font-size="13px" width="303px" fill="#323232" font-weight="400" align="top" lineHeight="125%" anchor="start" family="微软雅黑" size="13px" weight="400" font-style="" opacity="1" y="-2.625" transform="rotate(0)"><tspan id="SvgjsTspan1482" dy="16" x="10"><tspan id="SvgjsTspan1483" style="text-decoration:;">极大节省内存，FST压缩性能最高可达20倍，效率不</tspan></tspan><tspan id="SvgjsTspan1484" dy="16" x="10"><tspan id="SvgjsTspan1485" style="text-decoration:;">如HashMap，但是还不错</tspan></tspan></text></g></g><g id="SvgjsG1486"><path id="SvgjsPath1487" d="M464.28835646249036 369.8604277118484C 517.9479515596788 370.0125045776367 509.6520240262587 278.01250648498535 560.7418605826908 278.5599832018233" stroke="#323232" stroke-width="2" fill="none" marker-end="url(#SvgjsMarker1488)"></path></g><g id="SvgjsG1490"><path id="SvgjsPath1491" d="M464.29105886956654 370.14583919853976C 510.70462911553227 370.0125045776367 516.8953464704052 432.01250553131104 560.7321319172169 431.5325008960601" stroke="#323232" stroke-width="2" fill="none" marker-end="url(#SvgjsMarker1492)"></path></g><g id="SvgjsG1494"><path id="SvgjsPath1495" d="M464.2907577947859 256.1480582699482C 544.4684549074273 256.0125045776367 483.13152067851024 432.01250553131104 560.7332157864271 431.52451223898976" stroke="#323232" stroke-width="2" fill="none" marker-end="url(#SvgjsMarker1496)"></path></g><g id="SvgjsG1498"><path id="SvgjsPath1499" d="M463.3866014606358 277.9136824086915C 491.3599949717187 306.0725136637353 523.6171450804941 277.3053997037988 560.7101735748266 277.5760172923346" stroke="#323232" stroke-width="2" fill="none" marker-end="url(#SvgjsMarker1500)"></path></g><g id="SvgjsG1502"><path id="SvgjsPath1503" d="M464.28880390763265 142.16164441597945C 531.0607440092907 142.01250457763672 496.5392315766468 278.01250648498535 560.7402497801785 277.4756030669515" stroke="#323232" stroke-width="2" fill="none" marker-end="url(#SvgjsMarker1504)"></path></g><g id="SvgjsG1506" transform="translate(1302.3000030517578,314.0125045776367)"><path id="SvgjsPath1507" d="M 0 0L 154 0L 170 16L 170 172L 0 172L 0 0Z" stroke="none" fill-opacity="1" fill="#ffffaa"></path><path id="SvgjsPath1508" d="M 154 0L 154 16L 170 16Z" stroke="none" fill-opacity="1" fill="#cdcdcd"></path><path id="SvgjsPath1509" d="M 0 0L 154 0L 170 16L 170 172L 0 172L 0 0Z" stroke="none" fill="none"></path><g id="SvgjsG1510"><text id="SvgjsText1511" font-family="微软雅黑" text-anchor="start" font-size="13px" width="150px" fill="#323232" font-weight="400" align="top" lineHeight="125%" anchor="start" family="微软雅黑" size="13px" weight="400" font-style="" opacity="1" y="7.375" transform="rotate(0)"><tspan id="SvgjsTspan1512" dy="16" x="10"><tspan id="SvgjsTspan1513" style="text-decoration:;">适用于密集数组，id之间</tspan></tspan><tspan id="SvgjsTspan1514" dy="16" x="10"><tspan id="SvgjsTspan1515" style="text-decoration:;">的差值不会很大，不会存</tspan></tspan><tspan id="SvgjsTspan1516" dy="16" x="10"><tspan id="SvgjsTspan1517" style="text-decoration:;">储顺序id数组的差值，并</tspan></tspan><tspan id="SvgjsTspan1518" dy="16" x="10"><tspan id="SvgjsTspan1519" style="text-decoration:;">按差值的大小进行分组，</tspan></tspan><tspan id="SvgjsTspan1520" dy="16" x="10"><tspan id="SvgjsTspan1521" style="text-decoration:;">以分组中最大差值作为存</tspan></tspan><tspan id="SvgjsTspan1522" dy="16" x="10"><tspan id="SvgjsTspan1523" style="text-decoration:;">储的字节数（每个int是4</tspan></tspan><tspan id="SvgjsTspan1524" dy="16" x="10"><tspan id="SvgjsTspan1525" style="text-decoration:;">字节，32位，有效位其实</tspan></tspan><tspan id="SvgjsTspan1526" dy="16" x="10"><tspan id="SvgjsTspan1527" style="text-decoration:;">并不需要那么多），以达</tspan></tspan><tspan id="SvgjsTspan1528" dy="16" x="10"><tspan id="SvgjsTspan1529" style="text-decoration:;">到压缩空间的目的</tspan></tspan></text></g></g><g id="SvgjsG1530"><path id="SvgjsPath1531" d="M1067.838099651988 213.01177805682153C 1067.7999877929688 332.2351361617922 1182.0773714676025 400.0125045776367 1299.7006607096912 399.9540290379625" stroke="#323232" stroke-width="2" fill="none" marker-end="url(#SvgjsMarker1532)"></path></g><g id="SvgjsG1534" transform="translate(1302.3000030517578,25.01250457763672)"><path id="SvgjsPath1535" d="M 0 0L 154 0L 170 16L 170 168.99999237060547L 0 168.99999237060547L 0 0Z" stroke="none" fill-opacity="1" fill="#ffffaa"></path><path id="SvgjsPath1536" d="M 154 0L 154 16L 170 16Z" stroke="none" fill-opacity="1" fill="#cdcdcd"></path><path id="SvgjsPath1537" d="M 0 0L 154 0L 170 16L 170 168.99999237060547L 0 168.99999237060547L 0 0Z" stroke="none" fill="none"></path><g id="SvgjsG1538"><text id="SvgjsText1539" font-family="微软雅黑" text-anchor="start" font-size="13px" width="150px" fill="#323232" font-weight="400" align="top" lineHeight="125%" anchor="start" family="微软雅黑" size="13px" weight="400" font-style="" opacity="1" y="7.375" transform="rotate(0)"><tspan id="SvgjsTspan1540" dy="16" x="10"><tspan id="SvgjsTspan1541" style="text-decoration:;">适用于稀疏数组，id与id</tspan></tspan><tspan id="SvgjsTspan1542" dy="16" x="10"><tspan id="SvgjsTspan1543" style="text-decoration:;">之间的差值巨大，不适合</tspan></tspan><tspan id="SvgjsTspan1544" dy="16" x="10"><tspan id="SvgjsTspan1545" style="text-decoration:;">使用FOR，它是通过一对</tspan></tspan><tspan id="SvgjsTspan1546" dy="16" x="10"><tspan id="SvgjsTspan1547" style="text-decoration:;">数字（a,b）a代表的是原</tspan></tspan><tspan id="SvgjsTspan1548" dy="16" x="10"><tspan id="SvgjsTspan1549" style="text-decoration:;">数除以2的16次方的值，b</tspan></tspan><tspan id="SvgjsTspan1550" dy="16" x="10"><tspan id="SvgjsTspan1551" style="text-decoration:;">代表余数，也就是一个是</tspan></tspan><tspan id="SvgjsTspan1552" dy="16" x="10"><tspan id="SvgjsTspan1553" style="text-decoration:;">高16位的有效值，一个是</tspan></tspan><tspan id="SvgjsTspan1554" dy="16" x="10"><tspan id="SvgjsTspan1555" style="text-decoration:;">低16位的有效值</tspan></tspan></text></g></g><g id="SvgjsG1556"><path id="SvgjsPath1557" d="M1154.299337318543 81.54856738028177C 1213.9432124216064 81.5125045776367 1241.6567784231202 109.51250076293945 1299.701694285265 109.4187374760623" stroke="#323232" stroke-width="2" fill="none" marker-end="url(#SvgjsMarker1558)"></path></g><g id="SvgjsG1560" transform="translate(154.49999237060547,631.0125122070312)"><path id="SvgjsPath1561" d="M 0 4Q 0 0 4 0L 364 0Q 368 0 368 4L 368 43Q 368 47 364 47L 4 47Q 0 47 0 43Z" stroke="rgba(50,50,50,1)" stroke-width="2" fill-opacity="1" fill="#ffffff"></path><g id="SvgjsG1562"><text id="SvgjsText1563" font-family="微软雅黑" text-anchor="start" font-size="15px" width="348px" fill="#323232" font-weight="700" align="middle" lineHeight="125%" anchor="start" family="微软雅黑" size="15px" weight="700" font-style="" opacity="1" y="11.125" transform="rotate(0)"><tspan id="SvgjsTspan1564" dy="18" x="10"><tspan id="SvgjsTspan1565" style="text-decoration:;">1000,62101,131385,132052,191173,196658</tspan></tspan></text></g></g><g id="SvgjsG1566" transform="translate(34.49999237060547,558.0125122070312)"><path id="SvgjsPath1567" d="M 0 0L 120 0L 120 40L 0 40Z" stroke="none" fill="none"></path><g id="SvgjsG1568"><text id="SvgjsText1569" font-family="微软雅黑" text-anchor="middle" font-size="18px" width="120px" fill="#323232" font-weight="700" align="middle" lineHeight="125%" anchor="middle" family="微软雅黑" size="18px" weight="700" font-style="" opacity="1" y="4.25" transform="rotate(0)"><tspan id="SvgjsTspan1570" dy="22" x="60"><tspan id="SvgjsTspan1571" style="text-decoration:;">RBM</tspan></tspan></text></g></g><g id="SvgjsG1572"><path id="SvgjsPath1573" d="M338.49999237060547 679.0125122070312L338.49999237060547 783.0125122070312" stroke="#323232" stroke-width="2" fill="none" marker-end="url(#SvgjsMarker1574)"></path><rect id="SvgjsRect1576" width="64" height="16" x="306.49999237060547" y="723.0125122070312" fill="#ffffff"></rect><text id="SvgjsText1577" font-family="微软雅黑" text-anchor="middle" font-size="13px" width="64px" fill="#323232" font-weight="400" align="top" lineHeight="16px" anchor="middle" family="微软雅黑" size="13px" weight="400" font-style="" opacity="1" y="720.3875122070312" transform="rotate(0)"><tspan id="SvgjsTspan1578" dy="16" x="338.49999237060547"><tspan id="SvgjsTspan1579" style="text-decoration:;">除以65535</tspan></tspan></text></g><g id="SvgjsG1580" transform="translate(137.99999237060547,792.5125122070312)"><path id="SvgjsPath1581" d="M 0 4Q 0 0 4 0L 397 0Q 401 0 401 4L 401 43.5Q 401 47.5 397 47.5L 4 47.5Q 0 47.5 0 43.5Z" stroke="rgba(50,50,50,1)" stroke-width="2" fill-opacity="1" fill="#ffffff"></path><g id="SvgjsG1582"><text id="SvgjsText1583" font-family="微软雅黑" text-anchor="start" font-size="15px" width="381px" fill="#323232" font-weight="700" align="middle" lineHeight="125%" anchor="start" family="微软雅黑" size="15px" weight="700" font-style="" opacity="1" y="11.375" transform="rotate(0)"><tspan id="SvgjsTspan1584" dy="18" x="10"><tspan id="SvgjsTspan1585" style="text-decoration:;">(0,1000),(0,62101),(2,313),(2,980),(2,60101),(3,50)</tspan></tspan></text></g></g><g id="SvgjsG1586"><path id="SvgjsPath1587" d="M523.4999923706055 654.5125122070312L660.8999923706054 654.5125122070312" stroke="#323232" stroke-width="2" fill="none" marker-end="url(#SvgjsMarker1588)"></path></g><g id="SvgjsG1590" transform="translate(663.4999923706055,588.7625122070312)"><path id="SvgjsPath1591" d="M 0 0L 238 0L 254 16L 254 131.5L 0 131.5L 0 0Z" stroke="none" fill-opacity="1" fill="#ffffaa"></path><path id="SvgjsPath1592" d="M 238 0L 238 16L 254 16Z" stroke="none" fill-opacity="1" fill="#cdcdcd"></path><path id="SvgjsPath1593" d="M 0 0L 238 0L 254 16L 254 131.5L 0 131.5L 0 0Z" stroke="none" fill="none"></path><g id="SvgjsG1594"><text id="SvgjsText1595" font-family="微软雅黑" text-anchor="middle" font-size="13px" width="234px" fill="#323232" font-weight="400" align="middle" lineHeight="125%" anchor="middle" family="微软雅黑" size="13px" weight="400" font-style="" opacity="1" y="55.125" transform="rotate(0)"><tspan id="SvgjsTspan1596" dy="16" x="127"><tspan id="SvgjsTspan1597" style="text-decoration:;">2的16次方 * 2的16次方</tspan></tspan></text></g></g><g id="SvgjsG1598"><path id="SvgjsPath1599" d="M917.4999923706055 654.5125122070312L962.4999923706055 654.5125122070312" stroke="#323232" stroke-width="2" fill="none" marker-end="url(#SvgjsMarker1600)"></path></g><g id="SvgjsG1602" transform="translate(965.4999923706055,588.7625122070312)"><path id="SvgjsPath1603" d="M 0 0L 238 0L 254 16L 254 131.5L 0 131.5L 0 0Z" stroke="none" fill-opacity="1" fill="#ffffaa"></path><path id="SvgjsPath1604" d="M 238 0L 238 16L 254 16Z" stroke="none" fill-opacity="1" fill="#cdcdcd"></path><path id="SvgjsPath1605" d="M 0 0L 238 0L 254 16L 254 131.5L 0 131.5L 0 0Z" stroke="none" fill="none"></path><g id="SvgjsG1606"><text id="SvgjsText1607" font-family="微软雅黑" text-anchor="start" font-size="14px" width="234px" fill="#323232" font-weight="700" align="top" lineHeight="125%" anchor="start" family="微软雅黑" size="14px" weight="700" font-style="" opacity="1" y="7.25" transform="rotate(0)"><tspan id="SvgjsTspan1608" dy="17" x="10"><tspan id="SvgjsTspan1609" style="text-decoration:;">                    196658</tspan></tspan><tspan id="SvgjsTspan1610" dy="17" x="10"><tspan id="SvgjsTspan1611" style="text-decoration:;"> </tspan></tspan><tspan id="SvgjsTspan1612" dy="17" x="10"><tspan id="SvgjsTspan1613" style="text-decoration:;">       0000 0000 0000 0011</tspan></tspan><tspan id="SvgjsTspan1614" dy="17" x="10"><tspan id="SvgjsTspan1615" style="text-decoration:;">       0000 0000 0011 0010</tspan></tspan></text></g></g><g id="SvgjsG1616" transform="translate(934.4999923706055,792.5125122070312)"><path id="SvgjsPath1617" d="M 0 0L 100 0L 100 70L 0 70Z" stroke="rgba(50,50,50,1)" stroke-width="2" fill-opacity="1" fill="#ffffff"></path><g id="SvgjsG1618"><text id="SvgjsText1619" font-family="微软雅黑" text-anchor="middle" font-size="13px" width="80px" fill="#323232" font-weight="400" align="middle" lineHeight="125%" anchor="middle" family="微软雅黑" size="13px" weight="400" font-style="" opacity="1" y="15.875" transform="rotate(0)"><tspan id="SvgjsTspan1620" dy="16" x="50"><tspan id="SvgjsTspan1621" style="text-decoration:;">0000 0000 </tspan></tspan><tspan id="SvgjsTspan1622" dy="16" x="50"><tspan id="SvgjsTspan1623" style="text-decoration:;">0000 0011</tspan></tspan></text></g></g><g id="SvgjsG1624" transform="translate(1146.4999923706055,792.5125122070312)"><path id="SvgjsPath1625" d="M 0 0L 100 0L 100 70L 0 70Z" stroke="rgba(50,50,50,1)" stroke-width="2" fill-opacity="1" fill="#ffffff"></path><g id="SvgjsG1626"><text id="SvgjsText1627" font-family="微软雅黑" text-anchor="middle" font-size="13px" width="80px" fill="#323232" font-weight="400" align="middle" lineHeight="125%" anchor="middle" family="微软雅黑" size="13px" weight="400" font-style="" opacity="1" y="15.875" transform="rotate(0)"><tspan id="SvgjsTspan1628" dy="16" x="50"><tspan id="SvgjsTspan1629" style="text-decoration:;">0000 0000 </tspan></tspan><tspan id="SvgjsTspan1630" dy="16" x="50"><tspan id="SvgjsTspan1631" style="text-decoration:;">0011 0010</tspan></tspan></text></g></g><g id="SvgjsG1632"><path id="SvgjsPath1633" d="M1092.4999923706055 720.2625122070312L1092.4999923706055 756.3875122070312L984.4999923706055 756.3875122070312L984.4999923706055 788.9125122070312" stroke="#323232" stroke-width="2" fill="none" marker-end="url(#SvgjsMarker1634)"></path></g><g id="SvgjsG1636"><path id="SvgjsPath1637" d="M1092.4999923706055 720.2625122070312L1092.4999923706055 756.3875122070312L1196.4999923706055 756.3875122070312L1196.4999923706055 788.9125122070312" stroke="#323232" stroke-width="2" fill="none" marker-end="url(#SvgjsMarker1638)"></path></g><g id="SvgjsG1640"><path id="SvgjsPath1641" d="M984.4999923706055 863.5125122070312L984.4999923706055 875.7625122070312L984.4999923706055 875.7625122070312L984.4999923706055 886.4125122070312" stroke="#323232" stroke-width="2" fill="none" marker-end="url(#SvgjsMarker1642)"></path></g><g id="SvgjsG1644" transform="translate(944.4999923706055,889.0125122070312)"><path id="SvgjsPath1645" d="M 0 0L 64 0L 80 16L 80 100L 0 100L 0 0Z" stroke="none" fill-opacity="1" fill="#ffffaa"></path><path id="SvgjsPath1646" d="M 64 0L 64 16L 80 16Z" stroke="none" fill-opacity="1" fill="#cdcdcd"></path><path id="SvgjsPath1647" d="M 0 0L 64 0L 80 16L 80 100L 0 100L 0 0Z" stroke="none" fill="none"></path><g id="SvgjsG1648"><text id="SvgjsText1649" font-family="微软雅黑" text-anchor="middle" font-size="13px" width="60px" fill="#323232" font-weight="400" align="middle" lineHeight="125%" anchor="middle" family="微软雅黑" size="13px" weight="400" font-style="" opacity="1" y="39.375" transform="rotate(0)"><tspan id="SvgjsTspan1650" dy="16" x="40"><tspan id="SvgjsTspan1651" style="text-decoration:;">3</tspan></tspan></text></g></g><g id="SvgjsG1652"><path id="SvgjsPath1653" d="M1196.4999923706055 863.5125122070312L1196.4999923706055 875.7625122070312L1196.4999923706055 875.7625122070312L1196.4999923706055 886.4125122070312" stroke="#323232" stroke-width="2" fill="none" marker-end="url(#SvgjsMarker1654)"></path></g><g id="SvgjsG1656" transform="translate(1156.4999923706055,889.0125122070312)"><path id="SvgjsPath1657" d="M 0 0L 64 0L 80 16L 80 100L 0 100L 0 0Z" stroke="none" fill-opacity="1" fill="#ffffaa"></path><path id="SvgjsPath1658" d="M 64 0L 64 16L 80 16Z" stroke="none" fill-opacity="1" fill="#cdcdcd"></path><path id="SvgjsPath1659" d="M 0 0L 64 0L 80 16L 80 100L 0 100L 0 0Z" stroke="none" fill="none"></path><g id="SvgjsG1660"><text id="SvgjsText1661" font-family="微软雅黑" text-anchor="middle" font-size="13px" width="60px" fill="#323232" font-weight="400" align="middle" lineHeight="125%" anchor="middle" family="微软雅黑" size="13px" weight="400" font-style="" opacity="1" y="39.375" transform="rotate(0)"><tspan id="SvgjsTspan1662" dy="16" x="40"><tspan id="SvgjsTspan1663" style="text-decoration:;">50</tspan></tspan></text></g></g><g id="SvgjsG1664"><path id="SvgjsPath1665" d="M338.49999237060547 841.0125122070312L338.49999237060547 891.0447554452144L338.49999237060547 891.0447554452144L338.49999237060547 938.4769986833975" stroke="#323232" stroke-width="2" fill="none" marker-end="url(#SvgjsMarker1666)"></path></g><g id="SvgjsG1668" transform="translate(114.49999237060547,962.0125427246094)"><path id="SvgjsPath1669" d="M 0 0L 64 0L 80 16L 80 100L 0 100L 0 0Z" stroke="none" fill-opacity="1" fill="#ffffaa"></path><path id="SvgjsPath1670" d="M 64 0L 64 16L 80 16Z" stroke="none" fill-opacity="1" fill="#cdcdcd"></path><path id="SvgjsPath1671" d="M 0 0L 64 0L 80 16L 80 100L 0 100L 0 0Z" stroke="none" fill="none"></path><g id="SvgjsG1672"><text id="SvgjsText1673" font-family="微软雅黑" text-anchor="middle" font-size="17px" width="60px" fill="#323232" font-weight="700" align="middle" lineHeight="125%" anchor="middle" family="微软雅黑" size="17px" weight="700" font-style="" opacity="1" y="24.375" transform="rotate(0)"><tspan id="SvgjsTspan1674" dy="21" x="40"><tspan id="SvgjsTspan1675" style="text-decoration:;">short[]</tspan></tspan><tspan id="SvgjsTspan1676" dy="21" x="40"><tspan id="SvgjsTspan1677" style="text-decoration:;">key</tspan></tspan></text></g></g><g id="SvgjsG1678" transform="translate(114.49999237060547,1071.0125427246094)"><path id="SvgjsPath1679" d="M 0 0L 80 0L 80 296L 0 296Z" stroke="rgba(50,50,50,1)" stroke-width="2" fill-opacity="1" fill="#ffffff"></path><g id="SvgjsG1680"><text id="SvgjsText1681" font-family="微软雅黑" text-anchor="middle" font-size="15px" width="60px" fill="#323232" font-weight="700" align="top" lineHeight="125%" anchor="middle" family="微软雅黑" size="15px" weight="700" font-style="" opacity="1" y="-2.875" transform="rotate(0)"><tspan id="SvgjsTspan1682" dy="18" x="40"><tspan id="SvgjsTspan1683" style="text-decoration:;"> </tspan></tspan><tspan id="SvgjsTspan1684" dy="18" x="40"><tspan id="SvgjsTspan1685" style="text-decoration:;">0</tspan></tspan><tspan id="SvgjsTspan1686" dy="18" x="40"><tspan id="SvgjsTspan1687" style="text-decoration:;"> </tspan></tspan><tspan id="SvgjsTspan1688" dy="18" x="40"><tspan id="SvgjsTspan1689" style="text-decoration:;">1</tspan></tspan><tspan id="SvgjsTspan1690" dy="18" x="40"><tspan id="SvgjsTspan1691" style="text-decoration:;"> </tspan></tspan><tspan id="SvgjsTspan1692" dy="18" x="40"><tspan id="SvgjsTspan1693" style="text-decoration:;">2</tspan></tspan><tspan id="SvgjsTspan1694" dy="18" x="40"><tspan id="SvgjsTspan1695" style="text-decoration:;"> </tspan></tspan><tspan id="SvgjsTspan1696" dy="18" x="40"><tspan id="SvgjsTspan1697" style="text-decoration:;">3</tspan></tspan></text></g></g><g id="SvgjsG1698"><path id="SvgjsPath1699" d="M195.49999237060547 1097.0125427246094L245.99999237060547 1097.0125427246094L245.99999237060547 1097.0125427246094L293.89999237060545 1097.0125427246094" stroke="#323232" stroke-width="2" fill="none" marker-end="url(#SvgjsMarker1700)"></path></g><g id="SvgjsG1702" transform="translate(297.49999237060547,1071.0125427246094)"><path id="SvgjsPath1703" d="M 0 0L 324 0L 324 52L 0 52Z" stroke="rgba(50,50,50,1)" stroke-width="2" fill-opacity="1" fill="#ffffff"></path><g id="SvgjsG1704"><text id="SvgjsText1705" font-family="微软雅黑" text-anchor="start" font-size="15px" width="304px" fill="#323232" font-weight="400" align="middle" lineHeight="125%" anchor="start" family="微软雅黑" size="15px" weight="400" font-style="" opacity="1" y="13.625" transform="rotate(0)"><tspan id="SvgjsTspan1706" dy="18" x="10"><tspan id="SvgjsTspan1707" style="text-decoration:;">1000 62101</tspan></tspan></text></g></g><g id="SvgjsG1708"><path id="SvgjsPath1709" d="M193.49999237060547 1175.0125427246094L244.99999237060547 1175.0125427246094L244.99999237060547 1175.0125427246094L293.89999237060545 1175.0125427246094" stroke="#323232" stroke-width="2" fill="none" marker-end="url(#SvgjsMarker1710)"></path></g><g id="SvgjsG1712" transform="translate(297.49999237060547,1149.0125427246094)"><path id="SvgjsPath1713" d="M 0 0L 324 0L 324 52L 0 52Z" stroke="rgba(50,50,50,1)" stroke-width="2" fill-opacity="1" fill="#ffffff"></path><g id="SvgjsG1714"><text id="SvgjsText1715" font-family="微软雅黑" text-anchor="start" font-size="15px" width="304px" fill="#323232" font-weight="400" align="middle" lineHeight="125%" anchor="start" family="微软雅黑" size="15px" weight="400" font-style="" opacity="1" y="13.625" transform="rotate(0)"><tspan id="SvgjsTspan1716" dy="18" x="10"><tspan id="SvgjsTspan1717" style="text-decoration:;">313 980 60101</tspan></tspan></text></g></g><g id="SvgjsG1718"><path id="SvgjsPath1719" d="M195.49999237060547 1219.0125427246094L245.99999237060547 1219.0125427246094L245.99999237060547 1244.0125427246094L293.89999237060545 1244.0125427246094" stroke="#323232" stroke-width="2" fill="none" marker-end="url(#SvgjsMarker1720)"></path></g><g id="SvgjsG1722" transform="translate(297.49999237060547,1218.0125427246094)"><path id="SvgjsPath1723" d="M 0 0L 324 0L 324 52L 0 52Z" stroke="rgba(50,50,50,1)" stroke-width="2" fill-opacity="1" fill="#ffffff"></path><g id="SvgjsG1724"><text id="SvgjsText1725" font-family="微软雅黑" text-anchor="start" font-size="15px" width="304px" fill="#323232" font-weight="400" align="middle" lineHeight="125%" anchor="start" family="微软雅黑" size="15px" weight="400" font-style="" opacity="1" y="13.625" transform="rotate(0)"><tspan id="SvgjsTspan1726" dy="18" x="10"><tspan id="SvgjsTspan1727" style="text-decoration:;">1000 62101</tspan></tspan></text></g></g><g id="SvgjsG1728" transform="translate(304.29998779296875,934.5125122070312)"><path id="SvgjsPath1729" d="M 0 0L 269.2000045776367 0L 285.2000045776367 16L 285.2000045776367 89.50003051757812L 0 89.50003051757812L 0 0Z" stroke="none" fill-opacity="1" fill="#ffffaa"></path><path id="SvgjsPath1730" d="M 269.2000045776367 0L 269.2000045776367 16L 285.2000045776367 16Z" stroke="none" fill-opacity="1" fill="#cdcdcd"></path><path id="SvgjsPath1731" d="M 0 0L 269.2000045776367 0L 285.2000045776367 16L 285.2000045776367 89.50003051757812L 0 89.50003051757812L 0 0Z" stroke="none" fill="none"></path><g id="SvgjsG1732"><text id="SvgjsText1733" font-family="微软雅黑" text-anchor="middle" font-size="15px" width="266px" fill="#323232" font-weight="700" align="top" lineHeight="125%" anchor="middle" family="微软雅黑" size="15px" weight="700" font-style="" opacity="1" y="7.125" transform="rotate(0)"><tspan id="SvgjsTspan1734" dy="18" x="143"><tspan id="SvgjsTspan1735" style="text-decoration:;">container</tspan></tspan><tspan id="SvgjsTspan1736" dy="18" x="143"><tspan id="SvgjsTspan1737" style="text-decoration:;">ArrayContainer</tspan></tspan><tspan id="SvgjsTspan1738" dy="18" x="143"><tspan id="SvgjsTspan1739" style="text-decoration:;">BitmapContainer</tspan></tspan><tspan id="SvgjsTspan1740" dy="18" x="143"><tspan id="SvgjsTspan1741" style="text-decoration:;">RunContainer</tspan></tspan><tspan id="SvgjsTspan1742" dy="18" x="143"><tspan id="SvgjsTspan1743" style="text-decoration:;"> </tspan></tspan></text></g></g><g id="SvgjsG1744" transform="translate(703.2999877929688,1093.7624969482422)"><path id="SvgjsPath1745" d="M 0 0L 543.2000045776367 0L 543.2000045776367 143.00006103515625L 0 143.00006103515625Z" stroke="rgba(50,50,50,1)" stroke-width="2" fill-opacity="1" fill="#ffffff"></path><g id="SvgjsG1746"><text id="SvgjsText1747" font-family="微软雅黑" text-anchor="start" font-size="15px" width="524px" fill="#323232" font-weight="700" align="top" lineHeight="125%" anchor="start" family="微软雅黑" size="15px" weight="700" font-style="" opacity="1" y="-2.875" transform="rotate(0)"><tspan id="SvgjsTspan1748" dy="18" x="10"><tspan id="SvgjsTspan1749" style="text-decoration:;">bitmap: </tspan></tspan><tspan id="SvgjsTspan1750" dy="18" x="10"><tspan id="SvgjsTspan1751" style="text-decoration:;">             0 0 0 0 0 0 0 0 0 0 0 .... 0 0 0 一共655536(2的16次方)</tspan></tspan><tspan id="SvgjsTspan1752" dy="18" x="10"><tspan id="SvgjsTspan1753" style="text-decoration:;">             65535                        .... 2 1 0  代表的数字从0到65535，bit为1代</tspan></tspan><tspan id="SvgjsTspan1754" dy="18" x="10"><tspan id="SvgjsTspan1755" style="text-decoration:;">表存在，0代表不存在</tspan></tspan></text></g></g><g id="SvgjsG1756" transform="translate(703.2999877929688,1270.0125427246094)"><path id="SvgjsPath1757" d="M 0 0L 543.2000045776367 0L 543.2000045776367 143.00006103515625L 0 143.00006103515625Z" stroke="rgba(50,50,50,1)" stroke-width="2" fill-opacity="1" fill="#ffffff"></path><g id="SvgjsG1758"><text id="SvgjsText1759" font-family="微软雅黑" text-anchor="start" font-size="15px" width="524px" fill="#323232" font-weight="700" align="top" lineHeight="125%" anchor="start" family="微软雅黑" size="15px" weight="700" font-style="" opacity="1" y="-2.875" transform="rotate(0)"><tspan id="SvgjsTspan1760" dy="18" x="10"><tspan id="SvgjsTspan1761" style="text-decoration:;">Run</tspan></tspan><tspan id="SvgjsTspan1762" dy="18" x="10"><tspan id="SvgjsTspan1763" style="text-decoration:;"> 连续的数组，只存起始的数和最后一位数</tspan></tspan><tspan id="SvgjsTspan1764" dy="18" x="10"><tspan id="SvgjsTspan1765" style="text-decoration:;"> [1,2,3 ... 100w] -----&gt; [1, 100w]</tspan></tspan></text></g></g></svg>